<svg width="533.5" height="544.3" viewBox="0 0 533.5 544.3" xmlns="http://www.w3.org/2000/svg">
  <path fill="#4285f4" d="M533.5 278.4c0-17.4-1.4-34.1-4.1-50.4H272v95.3h146.9c-6.3 34-25 62.8-53.3 82v68h86.1c50.4-46.4 81.8-114.9 81.8-194.9z"/>
  <path fill="#34a853" d="M272 544.3c72.6 0 133.6-24.1 178.1-65.5l-86.1-68c-23.9 16-54.6 25.5-92 25.5-70.8 0-130.8-47.9-152.4-112.2h-89v70.6c44.3 87.8 135.5 149.6 241.4 149.6z"/>
  <path fill="#fbbc04" d="M119.6 324.1c-10.4-30-10.4-62.4 0-92.4v-70.6h-89c-38.7 77.4-38.7 168.1 0 245.5l89-70.5z"/>
  <path fill="#ea4335" d="M272 107.7c39.5-.6 77.6 14.4 106.5 41.8l79.5-79.5C414.9 24.5 344.6-1.4 272 0 166.1 0 74.9 61.8 30.6 149.6l89 70.6C141.2 155.6 201.2 107.7 272 107.7z"/>
</svg>
